<svg width="49" height="44" viewBox="0 0 49 44" fill="none" xmlns="http://www.w3.org/2000/svg">
<path d="M46.0083 3.06304C44.509 1.73267 42.5155 1 40.3951 1C38.2748 1 36.2812 1.73253 34.7817 3.06283L25.8913 10.9505C22.9953 13.5202 22.8099 17.5977 25.3339 20.3616L22.8182 22.5936C21.4092 21.5781 19.6649 21.0255 17.8247 21.0255C15.7042 21.0255 13.7105 21.7581 12.2112 23.0885L3.32131 30.9761C0.226251 33.7221 0.22625 38.1906 3.32118 40.937C4.82062 42.2674 6.81435 43 8.93475 43C11.0551 43 13.0491 42.2671 14.5485 40.9368L23.4379 33.0493C24.9374 31.7191 25.7634 29.9503 25.7634 28.0689C25.7634 26.4359 25.1404 24.8884 23.9957 23.6383L26.5112 21.4063C27.9204 22.4217 29.6647 22.9743 31.5052 22.9743C33.6256 22.9743 35.6195 22.2415 37.1189 20.9112L46.0083 13.0238C47.5079 11.6935 48.3336 9.9248 48.3337 8.04334C48.3338 6.16191 47.5079 4.39312 46.0083 3.06304ZM24.0983 28.0689C24.0983 29.5556 23.4456 30.9534 22.2604 32.0047L13.3709 39.8922C12.186 40.9435 10.6106 41.5225 8.93477 41.5225C7.25899 41.5225 5.68357 40.9435 4.4987 39.8923C2.05291 37.722 2.05301 34.1908 4.4987 32.0208L13.3886 24.1333C14.5736 23.0819 16.149 22.5029 17.8247 22.5029C19.2194 22.5029 20.5437 22.9053 21.6322 23.6461L15.5965 29.0013C15.2713 29.2898 15.2713 29.7574 15.5965 30.046C15.7591 30.1902 15.9721 30.2623 16.1853 30.2623C16.3984 30.2623 16.6114 30.1902 16.7741 30.0459L22.8096 24.6907C23.6446 25.6563 24.0983 26.8313 24.0983 28.0689ZM44.8308 11.9791L35.9414 19.8665C34.7565 20.9179 33.1811 21.4969 31.5053 21.4969C30.1105 21.4969 28.7859 21.0945 27.6975 20.3538L34.0134 14.7499C34.3385 14.4614 34.3385 13.9938 34.0133 13.7052C33.6883 13.4169 33.1611 13.4168 32.8358 13.7053L26.5207 19.3086C24.6414 17.128 24.8231 13.988 27.0688 11.9952L35.9591 4.10754C37.1441 3.05645 38.7195 2.47747 40.3951 2.47747C42.0707 2.47747 43.6459 3.05645 44.8308 4.10777C46.0159 5.15897 46.6686 6.55664 46.6686 8.04339C46.6686 9.53009 46.0159 10.9278 44.8308 11.9791Z" fill="#FFFBF0" stroke="#5049E0" stroke-width="0.444444"/>
</svg>
